<?xml version="1.0" encoding="utf-8"?>
<!-- Generator: Adobe Illustrator 24.0.3, SVG Export Plug-In . SVG Version: 6.00 Build 0)  -->
<svg version="1.1" id="Mediacorp_Secondary_Logo" xmlns="http://www.w3.org/2000/svg" xmlns:xlink="http://www.w3.org/1999/xlink"
	 width="450" height="125" x="0px" y="0px" viewBox="100 100 600 100" style="enable-background:new 100 100 600 100;" xml:space="preserve">
<style type="text/css">
	.st0{clip-path:url(#SVGID_2_);fill:url(#SVGID_3_);}
	.st1{clip-path:url(#SVGID_5_);fill:url(#SVGID_6_);}
	.st2{clip-path:url(#SVGID_8_);fill:url(#SVGID_9_);}
	.st3{clip-path:url(#SVGID_11_);fill:url(#SVGID_12_);}
	.st4{clip-path:url(#SVGID_14_);fill:url(#SVGID_15_);}
	.st5{clip-path:url(#SVGID_17_);fill:url(#SVGID_18_);}
	.st6{clip-path:url(#SVGID_20_);fill:url(#SVGID_21_);}
	.st7{clip-path:url(#SVGID_23_);fill:url(#SVGID_24_);}
	.st8{clip-path:url(#SVGID_26_);fill:#002561;}
</style>
<g>
	<g>
		<defs>
			<polygon id="SVGID_1_" points="122.5,135.8 114.5,150 146.5,150 138.5,135.8 130.5,121.7 			"/>
		</defs>
		<clipPath id="SVGID_2_">
			<use xlink:href="#SVGID_1_"  style="overflow:visible;"/>
		</clipPath>
		
			<linearGradient id="SVGID_3_" gradientUnits="userSpaceOnUse" x1="-124.3327" y1="447.6247" x2="-123.3327" y2="447.6247" gradientTransform="matrix(32.0477 0 0 -32.0477 4099.0796 14481.2002)">
			<stop  offset="0" style="stop-color:#EB008B"/>
			<stop  offset="0.1953" style="stop-color:#EB008B"/>
			<stop  offset="1" style="stop-color:#452F91"/>
		</linearGradient>
		<rect x="114.5" y="121.7" class="st0" width="32" height="28.3"/>
	</g>
	<g>
		<defs>
			<polygon id="SVGID_4_" points="194.6,150 178.6,150 186.6,164.2 194.6,178.3 202.6,164.2 210.6,150 			"/>
		</defs>
		<clipPath id="SVGID_5_">
			<use xlink:href="#SVGID_4_"  style="overflow:visible;"/>
		</clipPath>
		
			<linearGradient id="SVGID_6_" gradientUnits="userSpaceOnUse" x1="-119.4249" y1="454.036" x2="-118.4249" y2="454.036" gradientTransform="matrix(0 -28.3136 -28.3136 0 13050.0312 -3203.0393)">
			<stop  offset="0" style="stop-color:#BCD75F"/>
			<stop  offset="0.1" style="stop-color:#BCD75F"/>
			<stop  offset="0.1956" style="stop-color:#B3D25E"/>
			<stop  offset="0.3515" style="stop-color:#9BC35B"/>
			<stop  offset="0.5484" style="stop-color:#73AB57"/>
			<stop  offset="0.7761" style="stop-color:#3C8A51"/>
			<stop  offset="1" style="stop-color:#00654A"/>
		</linearGradient>
		<rect x="178.6" y="150" class="st1" width="32" height="28.3"/>
	</g>
	<g>
		<defs>
			<polygon id="SVGID_7_" points="186.6,135.8 178.6,150 210.6,150 202.6,135.8 194.6,121.7 			"/>
		</defs>
		<clipPath id="SVGID_8_">
			<use xlink:href="#SVGID_7_"  style="overflow:visible;"/>
		</clipPath>
		
			<linearGradient id="SVGID_9_" gradientUnits="userSpaceOnUse" x1="-124.3327" y1="447.6247" x2="-123.3327" y2="447.6247" gradientTransform="matrix(32.0477 0 0 -32.0477 4163.1753 14481.2002)">
			<stop  offset="0" style="stop-color:#BCD75F"/>
			<stop  offset="0.9271" style="stop-color:#007250"/>
			<stop  offset="1" style="stop-color:#007250"/>
		</linearGradient>
		<rect x="178.6" y="121.7" class="st2" width="32" height="28.3"/>
	</g>
	<g>
		<defs>
			<polygon id="SVGID_10_" points="146.5,150 162.6,178.3 194.6,178.3 178.6,150 			"/>
		</defs>
		<clipPath id="SVGID_11_">
			<use xlink:href="#SVGID_10_"  style="overflow:visible;"/>
		</clipPath>
		
			<linearGradient id="SVGID_12_" gradientUnits="userSpaceOnUse" x1="-119.4249" y1="454.036" x2="-118.4249" y2="454.036" gradientTransform="matrix(0 -28.3137 -28.3137 0 13026.0098 -3203.043)">
			<stop  offset="0" style="stop-color:#FAAF40"/>
			<stop  offset="0.3052" style="stop-color:#F6921E"/>
			<stop  offset="0.9543" style="stop-color:#BE1E2D"/>
			<stop  offset="1" style="stop-color:#BE1E2D"/>
		</linearGradient>
		<rect x="146.5" y="150" class="st3" width="48.1" height="28.3"/>
	</g>
	<g>
		<defs>
			<polygon id="SVGID_13_" points="210.6,150 226.7,178.3 258.7,178.3 242.7,150 			"/>
		</defs>
		<clipPath id="SVGID_14_">
			<use xlink:href="#SVGID_13_"  style="overflow:visible;"/>
		</clipPath>
		
			<linearGradient id="SVGID_15_" gradientUnits="userSpaceOnUse" x1="-119.4249" y1="454.036" x2="-118.4249" y2="454.036" gradientTransform="matrix(0 -28.3137 -28.3137 0 13090.1055 -3203.043)">
			<stop  offset="0" style="stop-color:#49BFB5"/>
			<stop  offset="0.2011" style="stop-color:#49BFB5"/>
			<stop  offset="0.3893" style="stop-color:#3DB2B6"/>
			<stop  offset="0.7379" style="stop-color:#1C8FB9"/>
			<stop  offset="1" style="stop-color:#0071BB"/>
		</linearGradient>
		<rect x="210.6" y="150" class="st4" width="48.1" height="28.3"/>
	</g>
	<g>
		<defs>
			<polygon id="SVGID_16_" points="114.5,150 98.5,178.3 130.5,178.3 146.5,150 			"/>
		</defs>
		<clipPath id="SVGID_17_">
			<use xlink:href="#SVGID_16_"  style="overflow:visible;"/>
		</clipPath>
		
			<linearGradient id="SVGID_18_" gradientUnits="userSpaceOnUse" x1="-119.4249" y1="454.036" x2="-118.4249" y2="454.036" gradientTransform="matrix(0 -28.3137 -28.3137 0 12977.9385 -3203.043)">
			<stop  offset="0" style="stop-color:#EB008B"/>
			<stop  offset="0.1404" style="stop-color:#CA098C"/>
			<stop  offset="0.4431" style="stop-color:#871A8E"/>
			<stop  offset="0.6975" style="stop-color:#572690"/>
			<stop  offset="0.8907" style="stop-color:#392E91"/>
			<stop  offset="1" style="stop-color:#2E3191"/>
		</linearGradient>
		<rect x="98.5" y="150" class="st5" width="48.1" height="28.3"/>
	</g>
	<g>
		<defs>
			<polygon id="SVGID_19_" points="194.6,121.7 210.6,150 242.7,150 226.7,121.7 			"/>
		</defs>
		<clipPath id="SVGID_20_">
			<use xlink:href="#SVGID_19_"  style="overflow:visible;"/>
		</clipPath>
		
			<linearGradient id="SVGID_21_" gradientUnits="userSpaceOnUse" x1="-122.5551" y1="447.7498" x2="-121.5551" y2="447.7498" gradientTransform="matrix(48.0716 0 0 -48.0716 6086.0376 21659.8867)">
			<stop  offset="0" style="stop-color:#49BFB5"/>
			<stop  offset="0.1406" style="stop-color:#49BFB5"/>
			<stop  offset="1" style="stop-color:#007ABA"/>
		</linearGradient>
		<rect x="194.6" y="121.7" class="st6" width="48.1" height="28.3"/>
	</g>
	<g>
		<defs>
			<polygon id="SVGID_22_" points="130.5,121.7 146.5,150 178.6,150 162.6,121.7 			"/>
		</defs>
		<clipPath id="SVGID_23_">
			<use xlink:href="#SVGID_22_"  style="overflow:visible;"/>
		</clipPath>
		
			<linearGradient id="SVGID_24_" gradientUnits="userSpaceOnUse" x1="-122.5551" y1="447.7498" x2="-121.5551" y2="447.7498" gradientTransform="matrix(48.0716 0 0 -48.0716 6021.9424 21659.8867)">
			<stop  offset="0" style="stop-color:#FAAF40"/>
			<stop  offset="0.5" style="stop-color:#F6921E"/>
			<stop  offset="0.6061" style="stop-color:#EF8420"/>
			<stop  offset="0.8048" style="stop-color:#DB6026"/>
			<stop  offset="1" style="stop-color:#C5372D"/>
		</linearGradient>
		<rect x="130.5" y="121.7" class="st7" width="48.1" height="28.3"/>
	</g>
	<g>
		<defs>
			<rect id="SVGID_25_" x="98.5" y="121.7" width="403.1" height="56.6"/>
		</defs>
		<clipPath id="SVGID_26_">
			<use xlink:href="#SVGID_25_"  style="overflow:visible;"/>
		</clipPath>
		<path class="st8" d="M279.5,164.1h-6.7v-25.2c3-1.6,7.4-2.5,11.6-2.5c3,0,5,0.6,6.5,1.6c2.4-0.9,5.3-1.6,8.2-1.6
			c8.6,0,9.9,4.7,9.9,10.3v17.4h-6.7v-16.8c0-3.6-0.8-5.5-4.6-5.5c-1,0-2.6,0.3-3.8,0.9c0.3,1.2,0.4,2.6,0.4,3.9v17.4h-6.7v-16.8
			c0-3.5-0.8-5.5-4.5-5.5c-1.1,0-2.8,0.3-3.6,0.7V164.1z"/>
		<path class="st8" d="M313.9,150.4c0-9.9,3.1-14.1,12-14.1c9.8,0,11.8,5.2,11.8,13.5c0,0.7,0,1.5-0.1,2.2c-3.1,0.6-9,1.2-12.7,1.4
			l-4.4,0.2c0.2,4.3,2.5,5.3,6.3,5.3c3.6,0,6.9-0.4,9.7-0.7l0.6,5.1c-2.8,0.5-6.5,1-11.7,1C316.3,164.5,313.9,158.5,313.9,150.4
			 M324.9,148.8c1.7-0.1,4.5-0.3,6-0.5c0-0.3,0.1-0.8,0.1-1.1c0-3.6-1.3-5.6-5.1-5.6c-4.9,0-5.6,3.1-5.6,7.4L324.9,148.8z"/>
		<path class="st8" d="M358.7,126.2h6.7V162c-3,1.8-7.4,2.5-11,2.5c-9,0-12.7-3.3-12.7-14.1c0-10.6,3.7-14,11.9-14
			c1.6,0,3.5,0.2,5.1,0.6V126.2z M354.9,141.8c-6.4,0-6.6,3.7-6.6,8.7c0,4.5,0.3,8.7,6,8.7c1.5,0,3.3-0.2,4.3-0.7v-16.1
			C357.6,142,356.1,141.8,354.9,141.8"/>
		<path class="st8" d="M370.6,129.7c0-2.8,1-3.9,3.9-3.9c3,0,3.9,1,3.9,3.9c0,2.8-0.9,3.9-3.9,3.9
			C371.5,133.5,370.6,132.5,370.6,129.7 M371.2,136.7h6.7v27.4h-6.7V136.7z"/>
		<path class="st8" d="M382.9,155.8c0-4.8,2.1-7.8,7.4-8.7c2.8-0.5,5.6-0.6,8.6-0.7c0-3.2-1.4-4.6-4.9-4.6c-3.2,0-6.8,0.4-9.5,0.7
			l-0.5-5.1c2.8-0.5,6.6-1,10.5-1c6,0,11,1.7,11,8.8V162c-2.9,1.6-7.4,2.5-12.2,2.5C385.9,164.5,382.9,161.6,382.9,155.8 M399,150.8
			c-2,0.1-4.3,0.2-6.2,0.6c-2.3,0.6-3.3,1.4-3.3,4.2c0,2.9,1.6,3.6,4.6,3.6c1.5,0,3.5-0.1,4.9-0.7V150.8z"/>
		<path class="st8" d="M429.4,163.4c-2.3,0.6-5.2,1-8.8,1c-9,0-10.4-7-10.4-14.3c0-9,2.1-13.8,11.9-13.8c3,0,5.3,0.5,7.2,1l-0.5,5
			c-1.6-0.3-3.2-0.6-4.9-0.6c-6.3,0-6.9,1.9-6.9,8.4c0,6.1,0.3,8.8,7,8.8c1.6,0,3.2-0.3,4.8-0.6L429.4,163.4z"/>
		<path class="st8" d="M431.9,150.4c0-10.2,3.2-14,12-14c8.8,0,12,4,12,14c0,10.1-3.2,14.1-12,14.1
			C435.1,164.5,431.9,160.7,431.9,150.4 M449.3,150.4c0-6.6-1.1-8.6-5.3-8.6c-4.2,0-5.3,1.7-5.3,8.6c0,6.9,1.1,8.6,5.3,8.6
			C448.2,159,449.3,157.1,449.3,150.4"/>
		<path class="st8" d="M460.6,164.1v-25.2c3-1.8,7.4-2.5,11-2.5c1,0,1.9,0,2.7,0.1l-0.5,5.5c-0.6-0.1-1.2-0.1-1.9-0.1
			c-1.6,0-3.6,0.3-4.6,0.8v21.4H460.6z"/>
		<path class="st8" d="M484.5,174.2h-6.7v-35.3c3-1.8,7.4-2.5,11-2.5c8.9,0,12.7,3.3,12.7,14.1c0,10.6-3.7,14-11.9,14
			c-1.6,0-3.5-0.2-5.1-0.6V174.2z M488.2,159.1c6.4,0,6.6-3.7,6.6-8.7c0-4.5-0.3-8.7-6-8.7c-1.5,0-3.3,0.2-4.4,0.7v16.1
			C485.6,158.9,487.1,159.1,488.2,159.1"/>
	</g>
</g>
</svg>
